<?xml version="1.0" encoding="UTF-8" standalone="no"?>
<!-- Created with Inkscape (http://www.inkscape.org/) -->

<svg
   xmlns:dc="http://purl.org/dc/elements/1.1/"
   xmlns:cc="http://creativecommons.org/ns#"
   xmlns:rdf="http://www.w3.org/1999/02/22-rdf-syntax-ns#"
   xmlns:svg="http://www.w3.org/2000/svg"
   xmlns="http://www.w3.org/2000/svg"
   xmlns:xlink="http://www.w3.org/1999/xlink"
   xmlns:sodipodi="http://sodipodi.sourceforge.net/DTD/sodipodi-0.dtd"
   xmlns:inkscape="http://www.inkscape.org/namespaces/inkscape"
   width="96"
   height="96"
   id="svg2"
   version="1.1"
   inkscape:version="0.48.4 r9939"
   sodipodi:docname="notes.svg"
   inkscape:export-filename="E:\PERSO\git\Franck\Franck\res\drawable-xxhdpi\quarter.png"
   inkscape:export-xdpi="90"
   inkscape:export-ydpi="90">
  <defs
     id="defs4">
    <linearGradient
       gradientTransform="translate(717.6270899999982,144.1597496317726)"
       gradientUnits="userSpaceOnUse"
       xlink:href="#linearGradient3013-7-3"
       id="linearGradient3523"
       y2="231.0882263183594"
       x2="-190.8759613037109"
       y1="770.9373168945312"
       x1="-543.2540283203125" />
    <linearGradient
       gradientUnits="userSpaceOnUse"
       xlink:href="#linearGradient3013-7-3"
       id="linearGradient3776-3"
       y2="490.8250427246094"
       x2="881.5010986328125"
       y1="490.8250427246094"
       x1="598.608642578125" />
    <linearGradient
       id="linearGradient3013-7-3">
      <stop
         offset="0"
         style="stop-color:#000000;stop-opacity:0.8263888955"
         id="stop3015-9-8" />
      <stop
         offset="1"
         style="stop-color:#000000;stop-opacity:1"
         id="stop3017-0-8" />
    </linearGradient>
    <linearGradient
       gradientTransform="translate(-368.00764,35.356037)"
       gradientUnits="userSpaceOnUse"
       xlink:href="#linearGradient3013-7-3"
       id="linearGradient3793-8"
       y2="490.8250427246094"
       x2="881.5010986328125"
       y1="490.8250427246094"
       x1="598.608642578125" />
    <linearGradient
       gradientTransform="matrix(2.039230408653212,0,0,2.039230408653212,791.7287816939475,-586.3220678901052)"
       gradientUnits="userSpaceOnUse"
       xlink:href="#linearGradient3013-7-3"
       id="linearGradient3770"
       y2="231.0882263183594"
       x2="-190.8759613037109"
       y1="770.9373168945312"
       x1="-543.2540283203125" />
    <linearGradient
       gradientUnits="userSpaceOnUse"
       xlink:href="#linearGradient3013-7"
       id="linearGradient3776"
       y2="490.8250427246094"
       x2="881.5010986328125"
       y1="490.8250427246094"
       x1="598.608642578125" />
    <linearGradient
       id="linearGradient3013-7">
      <stop
         offset="0"
         style="stop-color:#000000;stop-opacity:0.8263888955"
         id="stop3015-9" />
      <stop
         offset="1"
         style="stop-color:#000000;stop-opacity:1"
         id="stop3017-0" />
    </linearGradient>
    <linearGradient
       id="linearGradient3013">
      <stop
         offset="0"
         style="stop-color:#000000;stop-opacity:0.8263888955"
         id="stop3015" />
      <stop
         offset="1"
         style="stop-color:#000000;stop-opacity:1"
         id="stop3017" />
    </linearGradient>
    <linearGradient
       gradientTransform="matrix(2.0778635,0,0,2.0778635,-1086.923309005525,-459.4802680110498)"
       gradientUnits="userSpaceOnUse"
       xlink:href="#linearGradient3013"
       id="linearGradient3019"
       y2="333.8942260742188"
       x2="490.5304870605469"
       y1="489.1396484375"
       x1="382.3376770019531" />
    <style
       id="style6"
       type="text/css">
   
    .str1 {stroke:#131516;stroke-width:3}
    .str0 {stroke:#131516;stroke-width:42}
    .fil0 {fill:none}
    .fil1 {fill:#131516}
   
  </style>
    <inkscape:perspective
       id="perspective20"
       inkscape:persp3d-origin="455.31497 : 112.20472 : 1"
       inkscape:vp_z="910.62994 : 168.30708 : 1"
       inkscape:vp_y="0 : 1000 : 0"
       inkscape:vp_x="0 : 168.30708 : 1"
       sodipodi:type="inkscape:persp3d" />
  </defs>
  <sodipodi:namedview
     id="base"
     pagecolor="#ffffff"
     bordercolor="#666666"
     borderopacity="1.0"
     inkscape:pageopacity="0.0"
     inkscape:pageshadow="2"
     inkscape:zoom="2.0589844"
     inkscape:cx="124.28498"
     inkscape:cy="33.43355"
     inkscape:document-units="px"
     inkscape:current-layer="layer3"
     showgrid="false"
     showguides="true"
     inkscape:guide-bbox="true"
     inkscape:window-width="1280"
     inkscape:window-height="953"
     inkscape:window-x="-4"
     inkscape:window-y="-4"
     inkscape:window-maximized="1"
     inkscape:snap-nodes="false">
    <sodipodi:guide
       orientation="0,1"
       position="48,48"
       id="guide2985" />
    <sodipodi:guide
       orientation="0,1"
       position="96,96"
       id="guide2987" />
    <sodipodi:guide
       orientation="0,1"
       position="0,0"
       id="guide2989" />
    <sodipodi:guide
       orientation="1,0"
       position="48,48"
       id="guide3001" />
    <sodipodi:guide
       orientation="1,0"
       position="0,0"
       id="guide3003" />
    <sodipodi:guide
       orientation="1,0"
       position="96,96"
       id="guide3016" />
    <sodipodi:guide
       orientation="0,1"
       position="24,24"
       id="guide3018" />
    <sodipodi:guide
       orientation="0,1"
       position="72,72"
       id="guide3020" />
  </sodipodi:namedview>
  <metadata
     id="metadata7">
    <rdf:RDF>
      <cc:Work
         rdf:about="">
        <dc:format>image/svg+xml</dc:format>
        <dc:type
           rdf:resource="http://purl.org/dc/dcmitype/StillImage" />
        <dc:title></dc:title>
      </cc:Work>
    </rdf:RDF>
  </metadata>
  <g
     inkscape:label="WHOLE"
     inkscape:groupmode="layer"
     id="layer1"
     transform="translate(0,-956.36218)"
     style="display:none">
    <g
       id="layer1-4"
       transform="matrix(0.12046242,0,0,0.12046242,14.687866,920.86607)"
       style="fill:#000000;fill-opacity:1">
      <path
         style="fill:#000000;fill-opacity:1;stroke:none"
         id="path270"
         d="M 339.02614,493.89767 C 505.30268,495.39566 662.5913,558.31111 674.5752,697.62389 683.56312,799.53381 548.7443,892.36218 382.46776,892.36218 214.69323,890.86419 58.902591,829.44673 45.420709,690.18076 36.432788,586.72604 172.65597,493.89767 339.02614,493.89767 z m 40.35202,364.01081 c 71.90337,0 118.34096,-68.95421 110.85103,-124.33291 -16.47786,-109.35304 -53.92753,-197.78108 -152.79466,-197.78108 -71.90337,0 -113.84701,70.40538 -104.85909,125.8309 16.57148,109.39985 48.02921,196.28309 146.80272,196.28309 z"
         inkscape:connector-curvature="0" />
    </g>
  </g>
  <g
     inkscape:groupmode="layer"
     id="layer2"
     inkscape:label="HALF"
     style="display:none">
    <path
       class="fil1 str1"
       d="m 91.611587,28.021718 c 3.797324,2.356046 4.449678,9.762163 4.21347,15.558305 -0.08774,4.773574 -1.931179,9.281944 -5.530182,13.613528 -3.599002,4.331574 -7.900247,7.867556 -13.079297,10.519537 -5.091264,2.563583 -9.919192,3.977982 -14.396009,4.154778 -4.652367,0 -8.339145,-0.618796 -11.148125,-1.767991 -2.721195,-1.149194 -4.740145,-3.093981 -6.056855,-5.922769 -1.228927,-2.828777 -1.931172,-6.806759 -1.931172,-11.845527 0.175562,-5.39237 2.018954,-10.254343 5.617956,-14.585917 3.68678,-4.243185 8.251371,-7.602361 13.693757,-10.077546 5.442396,-2.386787 10.797007,-3.535982 15.976057,-3.535982 5.003488,0 9.216958,1.237593 12.6404,3.889584 z m -31.42543,16.2655 c -1.843394,1.149194 -4.21347,3.447583 -7.110223,6.895166 -2.896757,3.447574 -4.476806,6.364759 -4.652368,8.839945 0.351121,2.475185 1.931173,3.977981 4.564587,4.596778 2.633422,0 6.056853,-0.884001 10.270323,-2.651982 4.125685,-1.679592 8.163594,-4.066379 12.025933,-7.071963 2.545637,-1.679593 5.793517,-4.685176 9.655856,-8.928352 3.862348,-4.243176 5.793517,-7.690759 5.793517,-10.34274 0,-2.475186 -1.228925,-3.977972 -3.862348,-4.596769 -6.407975,0 -15.273813,4.419972 -26.685277,13.259917 z"
       id="path19-8"
       style="fill:#000000;fill-opacity:1;fill-rule:evenodd;stroke:#131516;stroke-width:0.26426843"
       inkscape:connector-curvature="0"
       sodipodi:nodetypes="ccscccccccsccsccccsscc" />
  </g>
  <g
     inkscape:groupmode="layer"
     id="layer3"
     inkscape:label="QUARTER">
    <path
       class="fil1 str1"
       d="m 91.611587,28.021718 c 3.797324,2.356046 4.449678,9.762163 4.21347,15.558305 -0.08774,4.773574 -1.931179,9.281944 -5.530182,13.613528 -3.599002,4.331574 -7.900247,7.867556 -13.079297,10.519537 -5.091264,2.563583 -9.919192,3.977982 -14.396009,4.154778 -4.652367,0 -8.339145,-0.618796 -11.148125,-1.767991 -2.721195,-1.149194 -4.740145,-3.093981 -6.056855,-5.922769 -1.228927,-2.828777 -1.931172,-6.806759 -1.931172,-11.845527 0.175562,-5.39237 2.018954,-10.254343 5.617956,-14.585917 3.68678,-4.243185 8.251371,-7.602361 13.693757,-10.077546 5.442396,-2.386787 10.797007,-3.535982 15.976057,-3.535982 5.003488,0 9.216958,1.237593 12.6404,3.889584 z"
       id="path19-8-6"
       style="fill:#000000;fill-opacity:1;fill-rule:evenodd;stroke:#131516;stroke-width:0.26426843;display:inline"
       inkscape:connector-curvature="0"
       sodipodi:nodetypes="ccscccccccsc" />
  </g>
</svg>
