<?xml version="1.0" encoding="UTF-8" standalone="no"?>
<!-- Created with Inkscape (http://www.inkscape.org/) -->

<svg
   xmlns:dc="http://purl.org/dc/elements/1.1/"
   xmlns:cc="http://creativecommons.org/ns#"
   xmlns:rdf="http://www.w3.org/1999/02/22-rdf-syntax-ns#"
   xmlns:svg="http://www.w3.org/2000/svg"
   xmlns="http://www.w3.org/2000/svg"
   xmlns:xlink="http://www.w3.org/1999/xlink"
   xmlns:sodipodi="http://sodipodi.sourceforge.net/DTD/sodipodi-0.dtd"
   xmlns:inkscape="http://www.inkscape.org/namespaces/inkscape"
   width="96"
   height="192"
   id="svg2"
   version="1.1"
   inkscape:version="0.48.4 r9939"
   sodipodi:docname="alterations.svg"
   inkscape:export-filename="E:\PERSO\git\Franck\Franck\res\drawable-xxhdpi\sharp.png"
   inkscape:export-xdpi="90"
   inkscape:export-ydpi="90">
  <defs
     id="defs4">
    <linearGradient
       gradientTransform="translate(717.62709,144.15975)"
       gradientUnits="userSpaceOnUse"
       xlink:href="#linearGradient3013-7-3"
       id="linearGradient3523"
       y2="231.08823"
       x2="-190.87596"
       y1="770.93732"
       x1="-543.25403" />
    <linearGradient
       gradientUnits="userSpaceOnUse"
       xlink:href="#linearGradient3013-7-3"
       id="linearGradient3776-3"
       y2="490.82504"
       x2="881.5011"
       y1="490.82504"
       x1="598.60864" />
    <linearGradient
       id="linearGradient3013-7-3">
      <stop
         offset="0"
         style="stop-color:#000000;stop-opacity:0.8263888955"
         id="stop3015-9-8" />
      <stop
         offset="1"
         style="stop-color:#000000;stop-opacity:1"
         id="stop3017-0-8" />
    </linearGradient>
    <linearGradient
       gradientTransform="translate(-368.00764,35.356037)"
       gradientUnits="userSpaceOnUse"
       xlink:href="#linearGradient3013-7-3"
       id="linearGradient3793-8"
       y2="490.82504"
       x2="881.5011"
       y1="490.82504"
       x1="598.60864" />
    <linearGradient
       gradientTransform="matrix(2.0392304,0,0,2.0392304,791.72878,-586.32207)"
       gradientUnits="userSpaceOnUse"
       xlink:href="#linearGradient3013-7-3"
       id="linearGradient3770"
       y2="231.08823"
       x2="-190.87596"
       y1="770.93732"
       x1="-543.25403" />
    <linearGradient
       gradientUnits="userSpaceOnUse"
       xlink:href="#linearGradient3013-7"
       id="linearGradient3776"
       y2="490.82504"
       x2="881.5011"
       y1="490.82504"
       x1="598.60864" />
    <linearGradient
       id="linearGradient3013-7">
      <stop
         offset="0"
         style="stop-color:#000000;stop-opacity:0.8263888955"
         id="stop3015-9" />
      <stop
         offset="1"
         style="stop-color:#000000;stop-opacity:1"
         id="stop3017-0" />
    </linearGradient>
    <linearGradient
       id="linearGradient3013">
      <stop
         offset="0"
         style="stop-color:#000000;stop-opacity:0.8263888955"
         id="stop3015" />
      <stop
         offset="1"
         style="stop-color:#000000;stop-opacity:1"
         id="stop3017" />
    </linearGradient>
    <linearGradient
       gradientTransform="matrix(2.0778635,0,0,2.0778635,-1086.9233,-459.48027)"
       gradientUnits="userSpaceOnUse"
       xlink:href="#linearGradient3013"
       id="linearGradient3019"
       y2="333.89423"
       x2="490.53049"
       y1="489.13965"
       x1="382.33768" />
    <style
       id="style6"
       type="text/css">
   
    .str1 {stroke:#131516;stroke-width:3}
    .str0 {stroke:#131516;stroke-width:42}
    .fil0 {fill:none}
    .fil1 {fill:#131516}
   
  </style>
    <inkscape:perspective
       id="perspective20"
       inkscape:persp3d-origin="455.31497 : 112.20472 : 1"
       inkscape:vp_z="910.62994 : 168.30708 : 1"
       inkscape:vp_y="0 : 1000 : 0"
       inkscape:vp_x="0 : 168.30708 : 1"
       sodipodi:type="inkscape:persp3d" />
  </defs>
  <sodipodi:namedview
     id="base"
     pagecolor="#ffffff"
     bordercolor="#666666"
     borderopacity="1.0"
     inkscape:pageopacity="0.0"
     inkscape:pageshadow="2"
     inkscape:zoom="2.1412287"
     inkscape:cx="62.500849"
     inkscape:cy="108.157"
     inkscape:document-units="px"
     inkscape:current-layer="layer4"
     showgrid="false"
     showguides="true"
     inkscape:guide-bbox="true"
     inkscape:window-width="1280"
     inkscape:window-height="953"
     inkscape:window-x="-4"
     inkscape:window-y="-4"
     inkscape:window-maximized="1"
     inkscape:snap-nodes="false">
    <sodipodi:guide
       orientation="0,1"
       position="48,48"
       id="guide2985" />
    <sodipodi:guide
       orientation="0,1"
       position="96,96"
       id="guide2987" />
    <sodipodi:guide
       orientation="0,1"
       position="0,0"
       id="guide2989" />
    <sodipodi:guide
       orientation="1,0"
       position="48,48"
       id="guide3001" />
    <sodipodi:guide
       orientation="1,0"
       position="0,0"
       id="guide3003" />
    <sodipodi:guide
       orientation="1,0"
       position="96,96"
       id="guide3016" />
    <sodipodi:guide
       orientation="0,1"
       position="24,24"
       id="guide3018" />
    <sodipodi:guide
       orientation="0,1"
       position="72,72"
       id="guide3020" />
    <sodipodi:guide
       orientation="0,1"
       position="144,144"
       id="guide3172" />
    <sodipodi:guide
       orientation="0,1"
       position="120,120"
       id="guide3174" />
  </sodipodi:namedview>
  <metadata
     id="metadata7">
    <rdf:RDF>
      <cc:Work
         rdf:about="">
        <dc:format>image/svg+xml</dc:format>
        <dc:type
           rdf:resource="http://purl.org/dc/dcmitype/StillImage" />
        <dc:title></dc:title>
      </cc:Work>
    </rdf:RDF>
  </metadata>
  <g
     inkscape:label="WHOLE"
     inkscape:groupmode="layer"
     id="layer1"
     transform="translate(0,-860.36218)"
     style="display:none"
     sodipodi:insensitive="true">
    <g
       id="layer1-4"
       transform="matrix(0.12046242,0,0,0.12046242,90.579191,872.86607)">
      <path
         style="fill:#000000;stroke:none"
         id="path270"
         d="M 339.02614,493.89767 C 505.30268,495.39566 662.5913,558.31111 674.5752,697.62389 683.56312,799.53381 548.7443,892.36218 382.46776,892.36218 214.69323,890.86419 58.902591,829.44673 45.420709,690.18076 36.432788,586.72604 172.65597,493.89767 339.02614,493.89767 z m 40.35202,364.01081 c 71.90337,0 118.34096,-68.95421 110.85103,-124.33291 -16.47786,-109.35304 -53.92753,-197.78108 -152.79466,-197.78108 -71.90337,0 -113.84701,70.40538 -104.85909,125.8309 16.57148,109.39985 48.02921,196.28309 146.80272,196.28309 z"
         inkscape:connector-curvature="0" />
    </g>
  </g>
  <g
     inkscape:groupmode="layer"
     id="layer2"
     inkscape:label="SHARP"
     sodipodi:insensitive="true"
     style="display:inline">
    <path
       inkscape:connector-curvature="0"
       d="m 40.840878,115.18324 0,-34.00714 14.092762,-3.99062 0,33.83362 -14.092762,4.16414 z m 27.748644,-8.22706 -9.688772,2.84836 0,-33.83362 9.688772,-2.77608 0,-14.05396 -9.688772,2.77608 0,-34.56936 -3.96711,0 0,35.61762 -14.092762,4.1569 0,-33.61506 -3.741628,0 0,34.89468 -9.688772,2.78332 0,14.08288 9.688772,-2.7761 0,33.76856 -9.688772,2.76888 0,14.02504 9.688772,-2.77608 0,34.37416 3.741628,0 0,-35.60318 14.092762,-3.97616 0,33.44158 3.96711,0 0,-34.6995 9.688772,-2.78332 0,-14.07564 z"
       id="path4149-8"
       style="fill:#000000;fill-opacity:1" />
  </g>
  <g
     inkscape:groupmode="layer"
     id="layer4"
     inkscape:label="FLAT"
     sodipodi:insensitive="true"
     style="display:none">
    <path
       sodipodi:nodetypes="cccccccccccccscsccccc"
       id="text1412-5"
       d="m 33.456099,0.9590687 0,61.6361903 c -4e-6,2e-5 -4e-6,4.15474 0,12.46412 5.520666,-5.3232 11.716082,-8.04972 18.58627,-8.1796 4.293832,6e-5 7.974278,1.88266 11.04135,5.6478 2.698966,3.50556 4.109794,7.400603 4.232512,11.685123 0.1226,3.3757 -0.674776,7.27072 -2.39229,11.6851 -0.613438,1.81768 -1.962936,3.765199 -4.04849,5.842538 -1.594892,1.55802 -3.251094,3.18094 -4.968608,4.8688 -9.078462,7.01104 -18.156894,14.087 -27.235328,21.22792 l 0,-126.8779913 4.784584,0 M 48.361921,79.343902 c -1.472198,-1.817663 -3.373762,-2.726503 -5.704698,-2.726503 -2.94437,0 -5.33666,1.75276 -7.176876,5.258283 -1.349504,2.72652 -2.024252,9.15332 -2.024248,19.280418 l 0,16.74864 c 0.12268,0.5193 3.55776,-2.66162 10.305258,-9.54284 3.680432,-3.63536 6.072722,-7.91992 7.176878,-12.853598 0.490704,-1.94754 0.736068,-3.89502 0.73609,-5.84256 -2.2e-5,-4.28454 -1.104156,-7.72514 -3.312404,-10.32184"
       style="font-size:317.82015991px;font-style:normal;font-weight:normal;line-height:125%;fill:#000000;fill-opacity:1;stroke:none;display:inline;font-family:Bitstream Vera Sans"
       inkscape:connector-curvature="0" />
  </g>
</svg>
