<?xml version="1.0" encoding="UTF-8" standalone="no"?>
<!-- Created with Inkscape (http://www.inkscape.org/) -->

<svg
   xmlns:dc="http://purl.org/dc/elements/1.1/"
   xmlns:cc="http://creativecommons.org/ns#"
   xmlns:rdf="http://www.w3.org/1999/02/22-rdf-syntax-ns#"
   xmlns:svg="http://www.w3.org/2000/svg"
   xmlns="http://www.w3.org/2000/svg"
   xmlns:sodipodi="http://sodipodi.sourceforge.net/DTD/sodipodi-0.dtd"
   xmlns:inkscape="http://www.inkscape.org/namespaces/inkscape"
   width="384"
   height="384"
   id="svg2"
   version="1.1"
   inkscape:version="0.48.2 r9819"
   sodipodi:docname="keys.svg">
  <defs
     id="defs4" />
  <sodipodi:namedview
     id="base"
     pagecolor="#ffffff"
     bordercolor="#666666"
     borderopacity="1.0"
     inkscape:pageopacity="0.0"
     inkscape:pageshadow="2"
     inkscape:zoom="0.98994949"
     inkscape:cx="337.14913"
     inkscape:cy="287.36755"
     inkscape:document-units="px"
     inkscape:current-layer="layer5"
     showgrid="false"
     showguides="true"
     inkscape:guide-bbox="true"
     inkscape:window-width="1366"
     inkscape:window-height="749"
     inkscape:window-x="-4"
     inkscape:window-y="-4"
     inkscape:window-maximized="1"
     inkscape:snap-nodes="false">
    <sodipodi:guide
       orientation="0,1"
       position="48,48"
       id="guide2985" />
    <sodipodi:guide
       orientation="0,1"
       position="96,96"
       id="guide2987" />
    <sodipodi:guide
       orientation="0,1"
       position="144,144"
       id="guide2989" />
    <sodipodi:guide
       orientation="0,1"
       position="192,192"
       id="guide2991" />
    <sodipodi:guide
       orientation="0,1"
       position="240,240"
       id="guide2993" />
    <sodipodi:guide
       orientation="0,1"
       position="288,288"
       id="guide2995" />
    <sodipodi:guide
       orientation="0,1"
       position="336,336"
       id="guide2997" />
    <sodipodi:guide
       orientation="1,0"
       position="48,48"
       id="guide3001" />
    <sodipodi:guide
       orientation="1,0"
       position="336,336"
       id="guide3003" />
  </sodipodi:namedview>
  <metadata
     id="metadata7">
    <rdf:RDF>
      <cc:Work
         rdf:about="">
        <dc:format>image/svg+xml</dc:format>
        <dc:type
           rdf:resource="http://purl.org/dc/dcmitype/StillImage" />
        <dc:title></dc:title>
      </cc:Work>
    </rdf:RDF>
  </metadata>
  <g
     inkscape:label="LINES"
     inkscape:groupmode="layer"
     id="layer1"
     transform="translate(0,-668.36218)">
    <path
       style="fill:none;stroke:#000000;stroke-width:4;stroke-linecap:round;stroke-linejoin:miter;stroke-opacity:1;stroke-miterlimit:4;stroke-dasharray:none"
       d="m 48,48 288,0"
       id="path3005"
       inkscape:connector-curvature="0"
       transform="translate(0,668.36218)" />
    <path
       style="fill:none;stroke:#000000;stroke-width:4;stroke-linecap:round;stroke-linejoin:miter;stroke-opacity:1;stroke-miterlimit:4;stroke-dasharray:none"
       d="m 48,96 288,0"
       id="path3007"
       inkscape:connector-curvature="0"
       transform="translate(0,668.36218)" />
    <path
       style="fill:none;stroke:#000000;stroke-width:4;stroke-linecap:round;stroke-linejoin:miter;stroke-opacity:1;stroke-miterlimit:4;stroke-dasharray:none"
       d="m 48,144 288,0"
       id="path3009"
       inkscape:connector-curvature="0"
       transform="translate(0,668.36218)" />
    <path
       style="fill:none;stroke:#000000;stroke-width:4;stroke-linecap:round;stroke-linejoin:miter;stroke-opacity:1;stroke-miterlimit:4;stroke-dasharray:none"
       d="m 48,192 288,0"
       id="path3011"
       inkscape:connector-curvature="0"
       transform="translate(0,668.36218)" />
    <path
       style="fill:none;stroke:#000000;stroke-width:4;stroke-linecap:round;stroke-linejoin:miter;stroke-opacity:1;stroke-miterlimit:4;stroke-dasharray:none"
       d="m 48,240 288,0"
       id="path3013"
       inkscape:connector-curvature="0"
       transform="translate(0,668.36218)" />
    <path
       style="fill:none;stroke:#000000;stroke-width:4;stroke-linecap:round;stroke-linejoin:miter;stroke-opacity:1;stroke-miterlimit:4;stroke-dasharray:none"
       d="m 48,288 288,0"
       id="path3015"
       inkscape:connector-curvature="0"
       transform="translate(0,668.36218)" />
    <path
       style="fill:none;stroke:#000000;stroke-width:4;stroke-linecap:round;stroke-linejoin:miter;stroke-opacity:1;stroke-miterlimit:4;stroke-dasharray:none"
       d="m 48,336 288,0"
       id="path3017"
       inkscape:connector-curvature="0"
       transform="translate(0,668.36218)" />
  </g>
  <g
     inkscape:groupmode="layer"
     id="layer3"
     inkscape:label="G"
     sodipodi:insensitive="true"
     style="display:none">
    <path
       style="fill:#131516;fill-rule:evenodd;stroke:#131516;stroke-width:0.24064441"
       id="path2418-4"
       d="m 199.82757,215.98261 c -4.84753,1.37647 -9.21826,4.45329 -13.2711,9.14949 -4.05285,4.77717 -6.03954,10.04015 -6.03954,15.70798 0,3.56263 1.19201,7.61108 3.49658,11.90244 2.30456,4.37232 5.80114,7.53011 10.33079,9.55433 1.50989,0.32388 2.2251,1.13357 2.2251,2.26714 0,0.40484 -0.55628,0.80969 -1.90723,1.13356 -7.23156,-1.86229 -13.19163,-5.82976 -17.80076,-11.7405 -4.60912,-5.9917 -6.99315,-12.79309 -7.15209,-20.56611 0.23841,-8.33981 2.70191,-16.11283 7.3905,-23.2381 4.76806,-7.20623 10.88707,-12.30728 18.35703,-15.30313 l -5.48327,-28.74398 c -12.23802,10.36403 -22.17148,21.1329 -29.87984,32.46855 -7.70837,11.25469 -11.68175,23.481 -11.99962,36.67894 0.15893,5.91074 1.35095,11.65953 3.57604,17.16542 2.2251,5.58686 5.56274,10.60694 10.01293,15.22217 8.97985,9.14949 20.66159,13.92666 34.88631,14.41247 4.84752,-0.32387 10.01292,-1.21453 15.57566,-2.67197 l -12.31749,-63.3987 z m 5.72166,-0.80969 12.39697,62.26513 c 12.23802,-5.02008 18.35703,-15.95088 18.35703,-32.63049 -0.71521,-5.58686 -2.30456,-10.60693 -5.00646,-15.06023 -2.62243,-4.53426 -6.11901,-8.09689 -10.5692,-10.6879 -4.45019,-2.59101 -9.45665,-3.88651 -15.17833,-3.88651 z M 189.25836,130.9652 c 2.62243,-1.61938 5.64221,-4.45329 8.90038,-8.42077 3.25818,-3.88651 6.43688,-8.50174 9.45665,-13.68375 3.09925,-5.26299 5.56274,-10.606938 7.3905,-16.031858 1.82776,-5.34395 2.7019,-10.44499 2.7019,-15.14119 0,-2.02423 -0.15894,-4.04845 -0.55627,-5.82977 -0.31787,-2.91488 -1.19202,-5.18201 -2.7019,-6.72042 -1.50988,-1.45744 -3.41711,-2.26713 -5.80114,-2.26713 -4.76806,0 -9.05932,2.99585 -12.87376,8.98755 -2.94031,5.18201 -5.4038,11.33566 -7.15209,18.29899 -1.82776,7.0443 -2.86084,14.007628 -3.01977,21.051928 0.39734,8.01592 1.66882,14.57441 3.65551,19.75642 z m -5.00646,4.6962 c -3.57605,-13.11697 -5.56274,-26.47685 -5.96008,-40.079628 0.0795,-8.74465 0.95361,-16.92252 2.62244,-24.5336 1.58935,-7.61108 3.89391,-14.16957 6.91368,-19.83739 2.94031,-5.66783 6.35742,-9.95919 10.17187,-12.87407 3.41711,-2.59101 5.8806,-3.96748 7.23155,-3.96748 1.03309,0 1.90723,0.40485 2.7019,1.13357 0.79468,0.72872 1.82777,1.94325 3.09925,3.56263 9.45666,13.68376 14.22471,30.20142 14.22471,49.47204 0,9.14949 -1.19202,18.056078 -3.57605,26.962658 -2.30456,8.82562 -5.72167,17.24639 -10.25133,25.10038 -4.60912,7.93496 -10.01293,14.81732 -16.29087,20.72805 l 6.43688,31.90177 c 3.49658,-0.40484 5.88061,-0.72872 7.23156,-0.72872 6.03954,0 11.44334,1.2955 16.44981,3.88651 5.00646,2.59101 9.29771,6.07267 12.79429,10.52597 3.49658,4.37232 6.19848,9.3924 8.1057,15.06022 1.82776,5.66783 2.86084,11.57856 2.86084,17.7322 0,9.55434 -2.4635,18.29899 -7.39049,26.15298 -4.927,7.85399 -12.31749,13.60278 -22.25095,17.32736 0.63574,3.96748 1.74829,9.71627 3.41711,17.08445 1.58935,7.44914 2.78137,13.35988 3.57604,17.7322 0.79468,4.37232 1.11255,8.58271 1.11255,12.71213 0,6.39659 -1.50989,12.06439 -4.52966,17.08449 -3.09924,5.02 -7.23155,8.9065 -12.47642,11.6595 -5.1654,2.7529 -10.88707,4.1294 -17.08555,4.1294 -8.74144,0 -16.37034,-2.51 -22.88669,-7.4491 -6.51634,-5.0201 -10.01293,-11.7405 -10.3308,-20.3232 0.23841,-3.8056 1.11255,-7.36823 2.7019,-10.76892 1.58936,-3.4007 3.73499,-6.15364 6.51635,-8.25884 2.7019,-2.18616 5.96008,-3.31972 9.69506,-3.56263 3.09924,0 6.03954,0.89066 8.82091,2.59101 2.7019,1.78131 4.927,4.12941 6.59582,7.12527 1.58935,2.99585 2.4635,6.31557 2.4635,9.87821 0,4.7772 -1.58936,8.8256 -4.76806,12.1453 -3.1787,3.3198 -7.23156,5.0201 -12.07909,5.0201 l -1.82776,0 c 3.09924,4.8582 8.18517,7.3682 15.2578,7.3682 3.57604,0 7.23155,-0.8097 10.88707,-2.2671 3.73498,-1.5384 6.83422,-3.5627 9.45665,-6.1537 2.62243,-2.591 4.37072,-5.3439 5.08593,-8.2588 1.35095,-3.3197 1.98669,-7.935 1.98669,-13.68377 0,-3.88651 -0.39734,-7.77302 -1.11255,-11.65953 -0.7152,-3.80554 -1.82775,-8.90658 -3.33764,-15.22216 -1.50988,-6.23461 -2.62243,-11.09275 -3.25817,-14.41248 -4.76806,1.21454 -9.69506,1.86229 -14.86046,1.86229 -8.66197,0 -16.84714,-1.78132 -24.55551,-5.42492 -7.70836,-3.6436 -14.46311,-8.66368 -20.34372,-15.1412 -5.80114,-6.47751 -10.3308,-13.76472 -13.58896,-22.02355 -3.17871,-8.17787 -4.84754,-16.76058 -4.927,-25.66716 0.31787,-8.25884 1.82775,-16.1938 4.68859,-23.64294 2.86084,-7.53011 6.51635,-14.65538 11.04601,-21.29484 4.52966,-6.63945 9.21825,-12.71212 14.06578,-18.13704 4.92698,-5.34395 11.36387,-12.22632 19.46958,-20.56612 z"
       class="fil0 str0"
       inkscape:connector-curvature="0" />
  </g>
  <g
     inkscape:groupmode="layer"
     id="layer4"
     inkscape:label="F"
     sodipodi:insensitive="true"
     style="display:none">
    <path
       style="fill:#131516;fill-rule:evenodd;stroke:#131516;stroke-width:0.24332136;display:inline"
       id="path2414-0"
       d="m 124.98838,247.93052 c 12.83374,-8.66574 22.41843,-15.22578 28.59162,-19.76112 6.17319,-4.45435 12.67129,-10.04254 19.33184,-16.68357 6.66055,-6.64104 12.26515,-14.17294 16.81382,-22.51473 3.57396,-6.1551 6.66055,-13.28206 9.17856,-21.38088 2.51801,-8.01784 3.81763,-15.79271 4.06131,-23.16263 0,-6.884 -0.89349,-13.44405 -2.76169,-19.59915 -1.78698,-6.23609 -4.87356,-11.33835 -9.25979,-15.46875 -4.38621,-4.04941 -10.07204,-6.07411 -17.13871,-6.07411 -6.823,0 -13.23987,1.3768 -19.25061,4.04941 -5.92953,2.7536 -10.15328,7.12696 -12.50885,13.28206 0,0.56692 -0.3249,1.29581 -0.81225,2.34866 0.16244,1.29581 0.81225,2.26767 2.03066,2.99657 1.21839,0.72889 2.27432,1.05284 3.24903,1.05284 0.48737,0 1.86822,-0.24296 3.9801,-0.72889 2.1931,-0.48593 3.98008,-0.80988 5.44215,-0.80988 4.30499,0 8.12262,1.53877 11.61535,4.53534 3.4115,2.99656 5.11725,6.64103 5.11725,10.9334 0,3.07756 -0.89349,5.99313 -2.59924,8.66574 -1.70576,2.67261 -4.06131,4.8593 -7.06668,6.39807 -3.00538,1.61977 -6.33565,2.34866 -9.90959,2.34866 -6.4981,0 -12.02148,-1.94372 -16.57015,-5.91214 -4.46744,-4.04941 -6.74178,-9.15167 -6.74178,-15.54974 0,-8.17981 2.51801,-15.22578 7.47282,-21.21891 5.03602,-5.99312 11.37165,-10.44748 19.16938,-13.44404 7.71649,-3.077552 15.5142,-4.535339 23.47437,-4.535339 8.6912,0 16.97628,2.186681 24.69277,6.641029 7.79771,4.37337 13.88968,10.44748 18.43834,17.97939 4.54867,7.61289 6.90422,15.71171 6.90422,24.45844 0,15.54973 -5.19848,29.96563 -15.59543,43.32869 -10.39695,13.36305 -23.23069,24.94437 -38.58244,34.82493 -10.23451,6.72202 -26.80465,15.7927 -49.62921,27.21204 l -1.13717,-4.21139 z M 237.81157,122.64176 c 0,-2.91558 1.05595,-5.34522 3.16782,-7.28894 2.03067,-2.02471 4.54868,-2.99656 7.55404,-2.99656 2.59924,0 5.03603,1.13383 7.22913,3.32051 2.19311,2.1057 3.24905,4.61633 3.24905,7.36993 0,2.91558 -1.13717,5.42621 -3.24905,7.45092 -2.27433,1.94371 -4.79234,2.91557 -7.63526,2.91557 -3.00537,0 -5.44216,-0.97186 -7.39158,-3.15854 -1.94943,-2.10569 -2.92415,-4.61633 -2.92415,-7.61289 z m 0,42.43782 c 0,-2.91557 1.05595,-5.42621 3.00538,-7.36993 2.03066,-2.0247 4.54867,-2.99656 7.71649,-2.99656 2.59924,0 4.9548,1.05285 7.22913,3.23953 2.11188,2.18668 3.24905,4.53534 3.24905,7.12696 0,3.15854 -1.05594,5.66918 -3.08659,7.69388 -2.11189,2.02471 -4.54867,3.07755 -7.39159,3.07755 -3.16782,0 -5.68583,-1.05284 -7.71649,-2.99656 -1.94943,-1.94372 -3.00538,-4.53534 -3.00538,-7.77487 z"
       class="fil1 str1"
       inkscape:connector-curvature="0" />
  </g>
  <g
     inkscape:groupmode="layer"
     id="layer5"
     inkscape:label="C">
    <path
       style="fill:#131516;fill-rule:evenodd;stroke:#131516;stroke-width:0.24338312;display:inline"
       id="path19-9"
       d="m 129.74914,288.03702 0,-186.75881 0,-4.130398 21.61714,0 0,186.758818 0,4.13039 -21.61714,0 z m 32.50698,0 0,-186.75881 0,-4.130398 6.90773,0 0,93.541388 c 3.41324,-1.78175 6.90774,-5.42621 10.32097,-11.17638 3.4945,-5.66917 6.42013,-11.6623 8.69561,-18.06037 2.27549,-6.39806 3.4945,-11.09538 3.65704,-14.17293 1.05648,6.80301 2.76309,12.22922 5.03858,16.35961 2.35676,4.04942 4.87605,6.96499 7.80167,8.74673 2.92563,1.70075 5.76999,2.59162 8.69562,2.59162 7.2328,0 11.78378,-3.23953 13.7342,-9.79957 1.95042,-6.56004 2.92562,-14.57788 2.92562,-24.0535 0,-4.29237 -0.0813,-8.17981 -0.32506,-11.58131 -0.24381,-3.40151 -0.73141,-6.884 -1.62535,-10.36649 -0.81268,-3.4825 -2.19422,-6.64104 -4.14464,-9.39464 -2.03169,-2.7536 -4.63225,-4.69731 -7.88294,-5.66917 -2.92563,-0.80988 -5.85126,-1.21482 -8.69562,-1.21482 -2.60056,0 -4.79478,0.48592 -6.5014,1.3768 -1.78788,0.89087 -2.76309,2.26767 -2.92562,3.88743 0.40633,1.45779 1.38154,3.15854 3.08816,5.18325 1.70662,1.94371 2.84436,3.48249 3.4945,4.45435 0.65014,0.97186 0.97521,2.34865 0.97521,4.21138 0,3.32052 -1.13774,6.07412 -3.41323,8.34179 -2.27549,2.26767 -5.28239,3.48249 -9.10196,3.48249 -3.7383,0 -6.82646,-1.3768 -9.10195,-4.04941 -2.27549,-2.7536 -3.4945,-5.99313 -3.65703,-9.6376 0.32507,-4.94028 2.11295,-9.23265 5.28238,-12.79613 3.2507,-3.4825 7.2328,-6.15511 12.02758,-7.936847 4.79478,-1.781741 9.58956,-2.672611 14.4656,-2.672611 5.52619,0 10.80857,0.971858 15.84716,2.915575 5.11984,1.943713 9.67082,4.859293 13.57166,8.584753 3.9821,3.80644 7.15153,8.42277 9.42702,13.92997 2.27549,5.42621 3.41323,11.6623 3.41323,18.5463 0,9.55661 -1.78788,17.49346 -5.28238,23.72955 -3.57577,6.31708 -8.12675,11.01439 -13.65293,13.92997 -5.60745,2.91558 -11.53998,4.53534 -17.79757,4.69732 -6.50139,-0.40495 -11.94631,-1.86273 -16.25349,-4.37337 l -8.61435,13.92997 8.61435,13.84899 c 5.93253,-2.42965 11.78378,-3.64447 17.4725,-3.64447 7.2328,0 13.4904,2.10569 18.93531,6.1551 5.36366,4.1304 9.50829,9.39463 12.35266,15.95468 2.76309,6.56005 4.2259,13.28207 4.2259,20.24705 0,7.61289 -1.70661,14.73986 -5.11985,21.2999 -3.41323,6.56005 -8.20801,11.74329 -14.38433,15.71171 -6.2576,3.88744 -13.32786,5.83115 -21.37334,5.83115 -9.34575,-0.40494 -17.14743,-2.59162 -23.40502,-6.64103 -6.2576,-3.96842 -9.34576,-9.96155 -9.34576,-17.81741 0.32507,-3.80644 1.70662,-6.72202 4.14464,-8.9087 2.43802,-2.26767 5.03858,-3.4015 7.88294,-3.64447 3.41324,0 6.5014,1.21483 9.18322,3.64447 2.68183,2.34866 4.06338,5.34522 4.06338,8.9087 0,1.3768 -0.32507,2.67262 -0.97521,3.88744 -0.65014,1.13384 -1.54408,2.51064 -2.84436,4.1304 -1.30028,1.53878 -2.19422,2.67261 -2.68183,3.4015 -0.4876,0.80988 -0.89394,1.70076 -1.05648,2.83459 0,1.45779 0.89395,2.67261 2.7631,3.64447 1.78788,0.97186 4.14464,1.53878 6.989,1.78174 8.93942,-0.40494 14.87194,-4.21139 17.87883,-11.25736 2.92563,-7.20795 4.38844,-16.03567 4.38844,-26.8071 0,-9.31364 -1.05647,-17.49345 -3.16942,-24.45844 -2.11296,-7.04597 -6.66393,-10.52847 -13.81547,-10.52847 -6.33886,0 -11.21491,2.67262 -14.62814,8.17981 -3.41323,5.42622 -5.60745,11.82428 -6.58266,19.19421 -1.05648,-6.23609 -2.68183,-12.22922 -5.03858,-17.97938 -2.35676,-5.83116 -5.03858,-10.93341 -8.20801,-15.30678 -3.0069,-4.29237 -6.33886,-7.77486 -9.7521,-10.20451 l 0,93.94632 -6.90773,0 z"
       class="fil1 str1"
       inkscape:connector-curvature="0" />
  </g>
  <g
     inkscape:groupmode="layer"
     id="layer2"
     inkscape:label="REF"
     style="display:none"
     sodipodi:insensitive="true">
    <g
       transform="matrix(0.44252008,0,0,0.44252008,173.30052,79.717752)"
       id="layer1-7"
       inkscape:label="Warstwa 1">
      <path
         style="fill:#131516;fill-rule:evenodd;stroke:#131516;stroke-width:0.5499934"
         id="path19"
         d="m -238.81562,470.75666 0,-422.034662 0,-9.333811 48.85008,0 0,422.034663 0,9.33381 -48.85008,0 z m 73.45876,0 0,-422.034662 0,-9.333811 15.60999,0 0,211.383363 c 7.71317,-4.02635 15.60999,-12.26206 23.32316,-25.25619 7.89681,-12.81112 14.5081,-26.35429 19.65021,-40.81255 5.14212,-14.45825 7.896821,-25.07318 8.264114,-32.02778 2.38741,15.37334 6.243995,27.6354 11.386108,36.96921 5.32576,9.1508 11.018814,15.73937 17.630103,19.76572 6.611288,3.84333 13.038929,5.85651 19.650218,5.85651 16.344574,0 26.6288,-7.32064 31.036326,-22.14493 4.407526,-14.82428 6.611288,-32.94286 6.611288,-54.35572 0,-9.69984 -0.183647,-18.4846 -0.734587,-26.17127 -0.550941,-7.68667 -1.652822,-15.556354 -3.672938,-23.426038 -1.836469,-7.869683 -4.958467,-15.007304 -9.365992,-21.229844 -4.591173,-6.222541 -10.467873,-10.614922 -17.813749,-12.811113 -6.611289,-1.830159 -13.222577,-2.745239 -19.650219,-2.745239 -5.876701,0 -10.835167,1.098096 -14.691752,3.111271 -4.040232,2.013175 -6.243994,5.124445 -6.611288,8.784763 0.918234,3.294286 3.121997,7.13762 6.978582,11.713017 3.856585,4.392382 6.427642,7.869684 7.896817,10.065875 1.469175,2.196191 2.203763,5.307461 2.203763,9.516827 0,7.503651 -2.571057,13.726191 -7.71317,18.850641 -5.142113,5.12444 -11.937049,7.86968 -20.568453,7.86968 -8.447761,0 -15.426341,-3.11127 -20.568451,-9.15079 -5.14212,-6.22255 -7.89682,-13.543181 -8.26411,-21.778897 0.73459,-11.16397 4.77482,-20.863813 11.93705,-28.916512 7.34587,-7.869684 16.34457,-13.909209 27.179737,-17.935558 10.835167,-4.02635 21.670335,-6.039525 32.689149,-6.039525 12.487989,0 24.425037,2.196191 35.811145,6.588572 11.5697547,4.392382 21.8539811,10.980954 30.669032,19.399686 8.998698,8.601747 16.160928,19.033653 21.303041,31.478735 5.142113,12.262069 7.71317,26.354289 7.71317,41.910639 0,21.59588 -4.040232,39.53144 -11.937049,53.62366 -8.080464,14.27524 -18.36469,24.89016 -30.85267916,31.47874 -12.67163584,6.58857 -26.07785984,10.24889 -40.21867084,10.61492 -14.691752,-0.91508 -26.996095,-4.20937 -36.72938,-9.88286 l -19.466572,31.47873 19.466572,31.29572 c 13.406223,-5.49047 26.6288,-8.23571 39.484083,-8.23571 16.344574,0 30.4853856,4.75841 42.7897279,13.90921 12.1206951,9.33381 21.4866871,21.22984 27.9143291,36.05413 6.243994,14.82429 9.549639,30.01461 9.549639,45.75397 0,17.2035 -3.856585,33.3089 -11.569755,48.13318 -7.71317,14.82429 -18.548337,26.53731 -32.5055015,35.50509 -14.1408115,8.78476 -30.1180915,13.17714 -48.2991345,13.17714 -21.119394,-0.91508 -38.749496,-5.85651 -52.890303,-15.0073 -14.14082,-8.96778 -21.1194,-22.51096 -21.1194,-40.2635 0.73459,-8.60175 3.85659,-15.19032 9.36599,-20.13175 5.50941,-5.12444 11.38611,-7.68666 17.813753,-8.23571 7.71317,0 14.691752,2.74524 20.7521,8.23571 6.060348,5.30746 9.182345,12.07905 9.182345,20.13175 0,3.11127 -0.734588,6.03953 -2.203763,8.78477 -1.469175,2.56222 -3.489291,5.67349 -6.427641,9.33381 -2.938351,3.4773 -4.958467,6.03952 -6.060348,7.68666 -1.101881,1.83016 -2.020116,3.84334 -2.38741,6.40556 0,3.29429 2.020116,6.03953 6.243995,8.23572 4.040232,2.19619 9.365992,3.4773 15.793633,4.02635 20.201159,-0.91508 33.607383,-9.51683 40.402318,-25.43921 6.611289,-16.28842 9.916933,-36.23715 9.916933,-60.57827 0,-21.04683 -2.38741,-39.53143 -7.162229,-55.2708 -4.77482,-15.92238 -15.059046,-23.79207 -31.219973,-23.79207 -14.324458,0 -25.343272,6.03953 -33.056442,18.48461 -7.71317,12.26207 -12.671636,26.72032 -14.875399,43.37477 -2.387412,-14.09223 -6.060352,-27.6354 -11.386112,-40.62953 -5.32576,-13.17715 -11.3861,-24.70715 -18.54833,-34.59001 -6.79494,-9.69984 -14.32446,-17.56952 -22.03763,-23.06 l 0,212.29844 -15.60999,0 z"
         class="fil1 str1"
         inkscape:connector-curvature="0" />
      <g
         transform="matrix(0.1835537,0,0,0.1830159,-98.297967,-1128.8415)"
         id="g2402"
         style="fill-rule:evenodd">
        <path
           style="fill:#131516;stroke:#131516;stroke-width:3"
           id="path2414"
           d="m 1239,8245 c 158,-107 276,-188 352,-244 76,-55 156,-124 238,-206 82,-82 151,-175 207,-278 44,-76 82,-164 113,-264 31,-99 47,-195 50,-286 0,-85 -11,-166 -34,-242 -22,-77 -60,-140 -114,-191 -54,-50 -124,-75 -211,-75 -84,0 -163,17 -237,50 -73,34 -125,88 -154,164 0,7 -4,16 -10,29 2,16 10,28 25,37 15,9 28,13 40,13 6,0 23,-3 49,-9 27,-6 49,-10 67,-10 53,0 100,19 143,56 42,37 63,82 63,135 0,38 -11,74 -32,107 -21,33 -50,60 -87,79 -37,20 -78,29 -122,29 -80,0 -148,-24 -204,-73 -55,-50 -83,-113 -83,-192 0,-101 31,-188 92,-262 62,-74 140,-129 236,-166 95,-38 191,-56 289,-56 107,0 209,27 304,82 96,54 171,129 227,222 56,94 85,194 85,302 0,192 -64,370 -192,535 -128,165 -286,308 -475,430 -126,83 -330,195 -611,336 l -14,-52 z M 2628,6698 c 0,-36 13,-66 39,-90 25,-25 56,-37 93,-37 32,0 62,14 89,41 27,26 40,57 40,91 0,36 -14,67 -40,92 -28,24 -59,36 -94,36 -37,0 -67,-12 -91,-39 -24,-26 -36,-57 -36,-94 z m 0,524 c 0,-36 13,-67 37,-91 25,-25 56,-37 95,-37 32,0 61,13 89,40 26,27 40,56 40,88 0,39 -13,70 -38,95 -26,25 -56,38 -91,38 -39,0 -70,-13 -95,-37 -24,-24 -37,-56 -37,-96 z"
           class="fil1 str1"
           inkscape:connector-curvature="0" />
      </g>
      <g
         transform="matrix(0.1795798,0,0,0.1829724,266.21959,-1128.5871)"
         id="g2416"
         style="fill-rule:evenodd">
        <path
           style="fill:#131516;stroke:#131516;stroke-width:3"
           id="path2418"
           d="m 2002,7851 c -61,17 -116,55 -167,113 -51,59 -76,124 -76,194 0,44 15,94 44,147 29,54 73,93 130,118 19,4 28,14 28,28 0,5 -7,10 -24,14 -91,-23 -166,-72 -224,-145 -58,-74 -88,-158 -90,-254 3,-103 34,-199 93,-287 60,-89 137,-152 231,-189 l -69,-355 c -154,128 -279,261 -376,401 -97,139 -147,290 -151,453 2,73 17,144 45,212 28,69 70,131 126,188 113,113 260,172 439,178 61,-4 126,-15 196,-33 l -155,-783 z m 72,-10 156,769 c 154,-62 231,-197 231,-403 -9,-69 -29,-131 -63,-186 -33,-56 -77,-100 -133,-132 -56,-32 -119,-48 -191,-48 z M 1869,6801 c 33,-20 71,-55 112,-104 41,-48 81,-105 119,-169 39,-65 70,-131 93,-198 23,-66 34,-129 34,-187 0,-25 -2,-50 -7,-72 -4,-36 -15,-64 -34,-83 -19,-18 -43,-28 -73,-28 -60,0 -114,37 -162,111 -37,64 -68,140 -90,226 -23,87 -36,173 -38,260 5,99 21,180 46,244 z m -63,58 c -45,-162 -70,-327 -75,-495 1,-108 12,-209 33,-303 20,-94 49,-175 87,-245 37,-70 80,-123 128,-159 43,-32 74,-49 91,-49 13,0 24,5 34,14 10,9 23,24 39,44 119,169 179,373 179,611 0,113 -15,223 -45,333 -29,109 -72,213 -129,310 -58,98 -126,183 -205,256 l 81,394 c 44,-5 74,-9 91,-9 76,0 144,16 207,48 63,32 117,75 161,130 44,54 78,116 102,186 23,70 36,143 36,219 0,118 -31,226 -93,323 -62,97 -155,168 -280,214 8,49 22,120 43,211 20,92 35,165 45,219 10,54 14,106 14,157 0,79 -19,149 -57,211 -39,62 -91,110 -157,144 -65,34 -137,51 -215,51 -110,0 -206,-31 -288,-92 -82,-62 -126,-145 -130,-251 3,-47 14,-91 34,-133 20,-42 47,-76 82,-102 34,-27 75,-41 122,-44 39,0 76,11 111,32 34,22 62,51 83,88 20,37 31,78 31,122 0,59 -20,109 -60,150 -40,41 -91,62 -152,62 l -23,0 c 39,60 103,91 192,91 45,0 91,-10 137,-28 47,-19 86,-44 119,-76 33,-32 55,-66 64,-102 17,-41 25,-98 25,-169 0,-48 -5,-96 -14,-144 -9,-47 -23,-110 -42,-188 -19,-77 -33,-137 -41,-178 -60,15 -122,23 -187,23 -109,0 -212,-22 -309,-67 -97,-45 -182,-107 -256,-187 -73,-80 -130,-170 -171,-272 -40,-101 -61,-207 -62,-317 4,-102 23,-200 59,-292 36,-93 82,-181 139,-263 57,-82 116,-157 177,-224 62,-66 143,-151 245,-254 z"
           class="fil0 str0"
           inkscape:connector-curvature="0" />
      </g>
      <rect
         y="33.973354"
         x="-282.24771"
         height="8.5298471"
         width="1078.7583"
         id="rect2440"
         style="fill:#131516;fill-opacity:1;fill-rule:evenodd" />
      <rect
         y="141.66266"
         x="-282.50653"
         height="8.5298471"
         width="1079.2914"
         id="rect3413"
         style="fill:#131516;fill-opacity:1;fill-rule:evenodd" />
      <rect
         y="250.69688"
         x="-282.49927"
         height="8.5298471"
         width="1079.2915"
         id="rect3433"
         style="fill:#131516;fill-opacity:1;fill-rule:evenodd" />
      <rect
         y="358.51013"
         x="-282.27847"
         height="8.5298471"
         width="1078.7583"
         id="rect3435"
         style="fill:#131516;fill-opacity:1;fill-rule:evenodd" />
      <rect
         y="465.56943"
         x="-282.27847"
         height="8.5298471"
         width="1078.7584"
         id="rect3437"
         style="fill:#131516;fill-opacity:1;fill-rule:evenodd" />
    </g>
  </g>
</svg>
